<svg width="76" height="473" viewBox="0 0 76 473" fill="none" xmlns="http://www.w3.org/2000/svg">
<line y1="-1" x2="470.322" y2="-1" transform="matrix(0.00326641 0.999995 -0.999996 0.00285432 29.869 0)" stroke="white" stroke-width="2"/>
<line y1="-1" x2="470.322" y2="-1" transform="matrix(0.00326641 0.999995 -0.999996 0.00285432 19.4966 0)" stroke="white" stroke-width="2"/>
<line y1="-1" x2="470.322" y2="-1" transform="matrix(0.00328378 0.999995 -0.999996 0.00283922 9.12416 0)" stroke="white" stroke-width="2"/>
<line y1="-1" x2="470.322" y2="-1" transform="matrix(0.00326641 0.999995 -0.999996 0.00285432 40.2414 0)" stroke="white" stroke-width="2"/>
<line y1="-1" x2="470.322" y2="-1" transform="matrix(0.00326641 0.999995 -0.999996 0.00285432 50.6138 0)" stroke="white" stroke-width="2"/>
<line y1="-1" x2="470.322" y2="-1" transform="matrix(0.00326641 0.999995 -0.999996 0.00285432 60.7465 0)" stroke="white" stroke-width="2"/>
<mask id="path-7-inside-1_15_75" fill="white">
<ellipse cx="12.3655" cy="470.679" rx="3.24138" ry="1.80061"/>
</mask>
<ellipse cx="12.3655" cy="470.679" rx="3.24138" ry="1.80061" fill="#4F3A1D"/>
<path d="M15.6069 470.679H13.6069C13.6069 470.416 13.7087 470.237 13.7609 470.168C13.8037 470.112 13.8022 470.14 13.6863 470.204C13.4492 470.336 12.9862 470.48 12.3655 470.48V472.48V474.48C13.535 474.48 14.6927 474.221 15.6288 473.701C16.497 473.218 17.6069 472.232 17.6069 470.679H15.6069ZM12.3655 472.48V470.48C11.7449 470.48 11.2818 470.336 11.0448 470.204C10.9289 470.14 10.9274 470.112 10.9701 470.168C11.0224 470.237 11.1242 470.416 11.1242 470.679H9.12416H7.12416C7.12416 472.232 8.23404 473.218 9.10232 473.701C10.0384 474.221 11.196 474.48 12.3655 474.48V472.48ZM9.12416 470.679H11.1242C11.1242 470.942 11.0224 471.121 10.9701 471.19C10.9274 471.246 10.9289 471.218 11.0448 471.154C11.2818 471.022 11.7449 470.878 12.3655 470.878V468.878V466.878C11.196 466.878 10.0384 467.137 9.10232 467.657C8.23404 468.14 7.12416 469.126 7.12416 470.679H9.12416ZM12.3655 468.878V470.878C12.9862 470.878 13.4492 471.022 13.6863 471.154C13.8022 471.218 13.8037 471.246 13.7609 471.19C13.7087 471.121 13.6069 470.942 13.6069 470.679H15.6069H17.6069C17.6069 469.126 16.497 468.14 15.6288 467.657C14.6927 467.137 13.535 466.878 12.3655 466.878V468.878Z" fill="white" mask="url(#path-7-inside-1_15_75)"/>
<mask id="path-9-inside-2_15_75" fill="white">
<ellipse cx="22.738" cy="470.679" rx="3.24138" ry="1.80061"/>
</mask>
<ellipse cx="22.738" cy="470.679" rx="3.24138" ry="1.80061" fill="#4F3A1D"/>
<path d="M25.9794 470.679H23.9794C23.9794 470.416 24.0812 470.237 24.1334 470.168C24.1761 470.112 24.1746 470.14 24.0588 470.204C23.8217 470.336 23.3586 470.48 22.738 470.48V472.48V474.48C23.9075 474.48 25.0651 474.221 26.0012 473.701C26.8695 473.218 27.9794 472.232 27.9794 470.679H25.9794ZM22.738 472.48V470.48C22.1173 470.48 21.6543 470.336 21.4172 470.204C21.3013 470.14 21.2999 470.112 21.3426 470.168C21.3948 470.237 21.4966 470.416 21.4966 470.679H19.4966H17.4966C17.4966 472.232 18.6065 473.218 19.4748 473.701C20.4108 474.221 21.5685 474.48 22.738 474.48V472.48ZM19.4966 470.679H21.4966C21.4966 470.942 21.3948 471.121 21.3426 471.19C21.2999 471.246 21.3013 471.218 21.4172 471.154C21.6543 471.022 22.1173 470.878 22.738 470.878V468.878V466.878C21.5685 466.878 20.4108 467.137 19.4748 467.657C18.6065 468.14 17.4966 469.126 17.4966 470.679H19.4966ZM22.738 468.878V470.878C23.3586 470.878 23.8217 471.022 24.0588 471.154C24.1746 471.218 24.1761 471.246 24.1334 471.19C24.0812 471.121 23.9794 470.942 23.9794 470.679H25.9794H27.9794C27.9794 469.126 26.8695 468.14 26.0012 467.657C25.0651 467.137 23.9075 466.878 22.738 466.878V468.878Z" fill="white" mask="url(#path-9-inside-2_15_75)"/>
<mask id="path-11-inside-3_15_75" fill="white">
<ellipse cx="33.1104" cy="470.679" rx="3.24138" ry="1.80061"/>
</mask>
<ellipse cx="33.1104" cy="470.679" rx="3.24138" ry="1.80061" fill="#4F3A1D"/>
<path d="M36.3518 470.679H34.3518C34.3518 470.416 34.4536 470.237 34.5058 470.168C34.5485 470.112 34.547 470.14 34.4312 470.204C34.1941 470.336 33.7311 470.48 33.1104 470.48V472.48V474.48C34.2799 474.48 35.4376 474.221 36.3736 473.701C37.2419 473.218 38.3518 472.232 38.3518 470.679H36.3518ZM33.1104 472.48V470.48C32.4897 470.48 32.0267 470.336 31.7896 470.204C31.6738 470.14 31.6723 470.112 31.715 470.168C31.7672 470.237 31.869 470.416 31.869 470.679H29.869H27.869C27.869 472.232 28.9789 473.218 29.8472 473.701C30.7832 474.221 31.9409 474.48 33.1104 474.48V472.48ZM29.869 470.679H31.869C31.869 470.942 31.7672 471.121 31.715 471.19C31.6723 471.246 31.6738 471.218 31.7896 471.154C32.0267 471.022 32.4897 470.878 33.1104 470.878V468.878V466.878C31.9409 466.878 30.7832 467.137 29.8472 467.657C28.9789 468.14 27.869 469.126 27.869 470.679H29.869ZM33.1104 468.878V470.878C33.7311 470.878 34.1941 471.022 34.4312 471.154C34.547 471.218 34.5485 471.246 34.5058 471.19C34.4536 471.121 34.3518 470.942 34.3518 470.679H36.3518H38.3518C38.3518 469.126 37.2419 468.14 36.3736 467.657C35.4376 467.137 34.2799 466.878 33.1104 466.878V468.878Z" fill="white" mask="url(#path-11-inside-3_15_75)"/>
<mask id="path-13-inside-4_15_75" fill="white">
<ellipse cx="43.4828" cy="470.679" rx="3.24138" ry="1.80061"/>
</mask>
<ellipse cx="43.4828" cy="470.679" rx="3.24138" ry="1.80061" fill="#4F3A1D"/>
<path d="M46.7242 470.679H44.7242C44.7242 470.416 44.8259 470.237 44.8782 470.168C44.9209 470.112 44.9194 470.14 44.8036 470.204C44.5665 470.336 44.1034 470.48 43.4828 470.48V472.48V474.48C44.6523 474.48 45.8099 474.221 46.746 473.701C47.6143 473.218 48.7242 472.232 48.7242 470.679H46.7242ZM43.4828 472.48V470.48C42.8621 470.48 42.3991 470.336 42.162 470.204C42.0461 470.14 42.0447 470.112 42.0874 470.168C42.1396 470.237 42.2414 470.416 42.2414 470.679H40.2414H38.2414C38.2414 472.232 39.3513 473.218 40.2196 473.701C41.1556 474.221 42.3133 474.48 43.4828 474.48V472.48ZM40.2414 470.679H42.2414C42.2414 470.942 42.1396 471.121 42.0874 471.19C42.0447 471.246 42.0461 471.218 42.162 471.154C42.3991 471.022 42.8621 470.878 43.4828 470.878V468.878V466.878C42.3133 466.878 41.1556 467.137 40.2196 467.657C39.3513 468.14 38.2414 469.126 38.2414 470.679H40.2414ZM43.4828 468.878V470.878C44.1034 470.878 44.5665 471.022 44.8036 471.154C44.9194 471.218 44.9209 471.246 44.8782 471.19C44.8259 471.121 44.7242 470.942 44.7242 470.679H46.7242H48.7242C48.7242 469.126 47.6143 468.14 46.746 467.657C45.8099 467.137 44.6523 466.878 43.4828 466.878V468.878Z" fill="white" mask="url(#path-13-inside-4_15_75)"/>
<mask id="path-15-inside-5_15_75" fill="white">
<ellipse cx="53.8552" cy="470.679" rx="3.24138" ry="1.80061"/>
</mask>
<ellipse cx="53.8552" cy="470.679" rx="3.24138" ry="1.80061" fill="#4F3A1D"/>
<path d="M57.0966 470.679H55.0966C55.0966 470.416 55.1984 470.237 55.2506 470.168C55.2933 470.112 55.2919 470.14 55.176 470.204C54.9389 470.336 54.4759 470.48 53.8552 470.48V472.48V474.48C55.0247 474.48 56.1824 474.221 57.1184 473.701C57.9867 473.218 59.0966 472.232 59.0966 470.679H57.0966ZM53.8552 472.48V470.48C53.2346 470.48 52.7715 470.336 52.5344 470.204C52.4186 470.14 52.4171 470.112 52.4598 470.168C52.512 470.237 52.6138 470.416 52.6138 470.679H50.6138H48.6138C48.6138 472.232 49.7237 473.218 50.592 473.701C51.5281 474.221 52.6857 474.48 53.8552 474.48V472.48ZM50.6138 470.679H52.6138C52.6138 470.942 52.512 471.121 52.4598 471.19C52.4171 471.246 52.4186 471.218 52.5344 471.154C52.7715 471.022 53.2346 470.878 53.8552 470.878V468.878V466.878C52.6857 466.878 51.5281 467.137 50.592 467.657C49.7237 468.14 48.6138 469.126 48.6138 470.679H50.6138ZM53.8552 468.878V470.878C54.4759 470.878 54.9389 471.022 55.176 471.154C55.2919 471.218 55.2933 471.246 55.2506 471.19C55.1984 471.121 55.0966 470.942 55.0966 470.679H57.0966H59.0966C59.0966 469.126 57.9867 468.14 57.1184 467.657C56.1824 467.137 55.0247 466.878 53.8552 466.878V468.878Z" fill="white" mask="url(#path-15-inside-5_15_75)"/>
<mask id="path-17-inside-6_15_75" fill="white">
<ellipse cx="64.2276" cy="470.679" rx="3.24138" ry="1.80061"/>
</mask>
<ellipse cx="64.2276" cy="470.679" rx="3.24138" ry="1.80061" fill="#4F3A1D"/>
<path d="M67.469 470.679H65.469C65.469 470.416 65.5708 470.237 65.623 470.168C65.6657 470.112 65.6643 470.14 65.5484 470.204C65.3113 470.336 64.8483 470.48 64.2276 470.48V472.48V474.48C65.3971 474.48 66.5548 474.221 67.4908 473.701C68.3591 473.218 69.469 472.232 69.469 470.679H67.469ZM64.2276 472.48V470.48C63.607 470.48 63.1439 470.336 62.9068 470.204C62.791 470.14 62.7895 470.112 62.8322 470.168C62.8844 470.237 62.9862 470.416 62.9862 470.679H60.9862H58.9862C58.9862 472.232 60.0961 473.218 60.9644 473.701C61.9005 474.221 63.0581 474.48 64.2276 474.48V472.48ZM60.9862 470.679H62.9862C62.9862 470.942 62.8844 471.121 62.8322 471.19C62.7895 471.246 62.791 471.218 62.9068 471.154C63.1439 471.022 63.607 470.878 64.2276 470.878V468.878V466.878C63.0581 466.878 61.9005 467.137 60.9644 467.657C60.0961 468.14 58.9862 469.126 58.9862 470.679H60.9862ZM64.2276 468.878V470.878C64.8483 470.878 65.3113 471.022 65.5484 471.154C65.6643 471.218 65.6657 471.246 65.623 471.19C65.5708 471.121 65.469 470.942 65.469 470.679H67.469H69.469C69.469 469.126 68.3591 468.14 67.4908 467.657C66.5548 467.137 65.3971 466.878 64.2276 466.878V468.878Z" fill="white" mask="url(#path-17-inside-6_15_75)"/>
<path d="M1.66426 454.304L74.5599 457.319C75.0178 457.338 75.3398 457.721 75.2791 458.176C75.2181 458.63 74.7973 458.984 74.3393 458.965L1.44359 455.95C0.985545 455.931 0.663715 455.547 0.724621 455.092C0.785663 454.638 1.20626 454.285 1.66426 454.304Z" fill="#F8F3EC" stroke="white"/>
</svg>
