<svg width="412" height="917" viewBox="0 0 412 917" fill="none" xmlns="http://www.w3.org/2000/svg">
<g clip-path="url(#clip0_2_5)">
<rect width="412" height="917" fill="#F3EADD"/>
<path d="M299 432.053L201.166 432.053C200.613 432.053 200.166 432.501 200.166 433.053V474.176C200.166 474.727 199.72 475.174 199.169 475.176L166.496 475.276C166.081 475.278 165.676 475.593 165.952 475.903C169.915 480.369 236.964 479.651 248.138 475.999C259.613 473.874 279.239 461.297 299 460.881C299.552 460.869 300 460.422 300 459.87V433.053C300 432.501 299.552 432.053 299 432.053Z" fill="#4F3A1D"/>
<path d="M113 432.053L210.834 432.053C211.387 432.053 211.834 432.501 211.834 433.053V474.176C211.834 474.727 212.28 475.174 212.831 475.176L245.504 475.277C245.919 475.278 246.324 475.593 246.048 475.903C242.085 480.369 175.036 479.651 163.862 475.999C152.387 473.874 132.761 461.297 113 460.881C112.448 460.869 112 460.422 112 459.87V433.053C112 432.501 112.448 432.053 113 432.053Z" fill="#4F3A1D"/>
<ellipse cx="206.5" cy="288" rx="57.5" ry="57" fill="#251C0E"/>
<path d="M410.079 640.243C369.025 681.766 50.7344 689.123 1.80031 639.981C1.13833 639.316 0 639.849 0 640.787V947C0 947.552 0.447718 948 1 948H206H411C411.552 948 412 947.552 412 947V641.078C412 640.109 410.76 639.555 410.079 640.243Z" fill="#254A55"/>
</g>
<defs>
<clipPath id="clip0_2_5">
<rect width="412" height="917" fill="white"/>
</clipPath>
</defs>
</svg>
