<svg width="412" height="917" viewBox="0 0 412 917" fill="none" xmlns="http://www.w3.org/2000/svg">
<g clip-path="url(#clip0_2_5)">
<rect width="412" height="917" fill="#F3EADD"/>
<path d="M299 432.053L201.166 432.053C200.613 432.053 200.166 432.501 200.166 433.053V474.176C200.166 474.727 199.72 475.174 199.169 475.176L166.496 475.276C166.081 475.278 165.676 475.593 165.952 475.903C169.915 480.369 236.964 479.651 248.138 475.999C259.613 473.874 279.239 461.297 299 460.881C299.552 460.869 300 460.422 300 459.87V433.053C300 432.501 299.552 432.053 299 432.053Z" fill="#4F3A1D"/>
<path d="M113 432.053L210.834 432.053C211.387 432.053 211.834 432.501 211.834 433.053V474.176C211.834 474.727 212.28 475.174 212.831 475.176L245.504 475.277C245.919 475.278 246.324 475.593 246.048 475.903C242.085 480.369 175.036 479.651 163.862 475.999C152.387 473.874 132.761 461.297 113 460.881C112.448 460.869 112 460.422 112 459.87V433.053C112 432.501 112.448 432.053 113 432.053Z" fill="#4F3A1D"/>
<ellipse cx="206.5" cy="288" rx="57.5" ry="57" fill="#251C0E"/>
<line y1="-1" x2="851.57" y2="-1" transform="matrix(0.00180404 0.999998 -0.999987 0.00516804 198.869 -383)" stroke="white" stroke-width="2"/>
<line y1="-1" x2="851.57" y2="-1" transform="matrix(0.00180404 0.999998 -0.999987 0.00516804 188.497 -383)" stroke="white" stroke-width="2"/>
<line y1="-1" x2="851.57" y2="-1" transform="matrix(0.00181363 0.999998 -0.999987 0.00514069 178.124 -383)" stroke="white" stroke-width="2"/>
<line y1="-1" x2="851.57" y2="-1" transform="matrix(0.00180404 0.999998 -0.999987 0.00516804 209.241 -383)" stroke="white" stroke-width="2"/>
<line y1="-1" x2="851.57" y2="-1" transform="matrix(0.00180404 0.999998 -0.999987 0.00516804 219.614 -383)" stroke="white" stroke-width="2"/>
<line y1="-1" x2="851.57" y2="-1" transform="matrix(0.00180404 0.999998 -0.999987 0.00516804 229.747 -383)" stroke="white" stroke-width="2"/>
<path d="M181.365 466.959C182.598 466.959 183.606 467.965 183.607 469.219C183.607 470.473 182.598 471.48 181.365 471.48C180.133 471.48 179.124 470.473 179.124 469.219C179.124 467.965 180.133 466.959 181.365 466.959Z" fill="#4F3A1D" stroke="white" stroke-width="2"/>
<path d="M191.738 466.959C192.97 466.959 193.979 467.965 193.979 469.219C193.979 470.473 192.97 471.48 191.738 471.48C190.505 471.48 189.497 470.473 189.497 469.219C189.497 467.965 190.506 466.959 191.738 466.959Z" fill="#4F3A1D" stroke="white" stroke-width="2"/>
<path d="M202.11 466.959C203.343 466.959 204.351 467.965 204.351 469.219C204.351 470.473 203.343 471.48 202.11 471.48C200.878 471.48 199.869 470.473 199.869 469.219C199.869 467.965 200.878 466.959 202.11 466.959Z" fill="#4F3A1D" stroke="white" stroke-width="2"/>
<path d="M212.483 466.959C213.715 466.959 214.724 467.965 214.724 469.219C214.724 470.473 213.715 471.48 212.483 471.48C211.25 471.48 210.241 470.473 210.241 469.219C210.242 467.965 211.25 466.959 212.483 466.959Z" fill="#4F3A1D" stroke="white" stroke-width="2"/>
<path d="M222.855 466.959C224.087 466.959 225.096 467.965 225.096 469.219C225.096 470.473 224.087 471.48 222.855 471.48C221.623 471.48 220.614 470.473 220.614 469.219C220.614 467.965 221.623 466.959 222.855 466.959Z" fill="#4F3A1D" stroke="white" stroke-width="2"/>
<path d="M233.227 466.959C234.46 466.959 235.468 467.965 235.469 469.219C235.469 470.473 234.46 471.48 233.227 471.48C231.995 471.48 230.986 470.473 230.986 469.219C230.986 467.965 231.995 466.959 233.227 466.959Z" fill="#4F3A1D" stroke="white" stroke-width="2"/>
<path d="M171.359 439.221L242.924 444.58C243.75 444.642 244.37 445.362 244.309 446.188L244.25 446.974C244.189 447.8 243.47 448.42 242.644 448.358L171.08 442.999C170.254 442.937 169.633 442.217 169.695 441.391L169.753 440.605C169.814 439.779 170.533 439.159 171.359 439.221Z" fill="#F8F3EC" stroke="white"/>
<path d="M410.079 640.243C369.025 681.766 50.7344 689.123 1.80031 639.981C1.13833 639.316 0 639.849 0 640.787V947C0 947.552 0.447718 948 1 948H206H411C411.552 948 412 947.552 412 947V641.078C412 640.109 410.76 639.555 410.079 640.243Z" fill="#254A55"/>
</g>
<defs>
<clipPath id="clip0_2_5">
<rect width="412" height="917" fill="white"/>
</clipPath>
</defs>
</svg>
