<svg width="73" height="73" viewBox="0 0 73 73" fill="none" xmlns="http://www.w3.org/2000/svg">
<path d="M41.0798 40.559C39.4415 42.1804 37.2297 43.0898 34.9248 43.0898C32.6199 43.0898 30.408 42.1804 28.7698 40.559C27.9643 39.7646 27.3247 38.818 26.8882 37.7742C26.4517 36.7305 26.2269 35.6104 26.2269 34.479C26.2269 33.3477 26.4517 32.2276 26.8882 31.1839C27.3247 30.1401 27.9643 29.1935 28.7698 28.399C30.4038 26.785 32.608 25.8799 34.9048 25.8799C37.2015 25.8799 39.4058 26.785 41.0398 28.399C41.8478 29.1909 42.4905 30.1354 42.9305 31.1777C43.3705 32.22 43.599 33.3393 43.6027 34.4707C43.6064 35.602 43.3853 36.7228 42.9522 37.768C42.5191 38.8132 41.8826 39.7619 41.0798 40.559Z" stroke="#C3DDE5" stroke-width="2" stroke-linecap="round" stroke-linejoin="round"/>
<path d="M40.9466 41L47.1366 47.12" stroke="#C3DDE5" stroke-width="2" stroke-linecap="round" stroke-linejoin="round"/>
</svg>
