<svg width="76" height="75" viewBox="0 0 76 75" fill="none" xmlns="http://www.w3.org/2000/svg">
<path d="M37.5301 49.5C44.1575 49.5 49.5301 44.1274 49.5301 37.5C49.5301 30.8726 44.1575 25.5 37.5301 25.5C30.9027 25.5 25.5301 30.8726 25.5301 37.5C25.5301 44.1274 30.9027 49.5 37.5301 49.5Z" stroke="#C3DDE5" stroke-width="1.5" stroke-linecap="round" stroke-linejoin="round"/>
<path d="M42.8094 34.4823C42.1712 33.8711 41.3217 33.5299 40.438 33.5299C39.5543 33.5299 38.7048 33.8711 38.0666 34.4823L37.8037 34.7566L37.5409 34.4823C36.9119 33.8533 36.0589 33.5 35.1694 33.5C34.28 33.5 33.427 33.8533 32.798 34.4823C32.1691 35.1112 31.8157 35.9642 31.8157 36.8537C31.8157 37.7432 32.1691 38.5962 32.798 39.2251L33.0609 39.4994L37.8037 44.2423L42.5466 39.4994L42.8094 39.2251C43.1215 38.9141 43.369 38.5445 43.538 38.1375C43.7069 37.7306 43.7939 37.2943 43.7939 36.8537C43.7939 36.4131 43.7069 35.9768 43.538 35.5699C43.369 35.163 43.1215 34.7934 42.8094 34.4823Z" stroke="#C3DDE5" stroke-width="1.5" stroke-linecap="round" stroke-linejoin="round"/>
</svg>
