<svg width="24" height="24" viewBox="0 0 24 24" fill="none" xmlns="http://www.w3.org/2000/svg">
<g clip-path="url(#clip0_172_2251)">
<path d="M12 22.5C17.799 22.5 22.5 17.799 22.5 12C22.5 6.20101 17.799 1.5 12 1.5C6.20101 1.5 1.5 6.20101 1.5 12C1.5 17.799 6.20101 22.5 12 22.5Z" fill="#9F453D" stroke="#9F453D" stroke-width="2" stroke-linecap="round" stroke-linejoin="round"/>
<path d="M16.38 8.15979C15.8216 7.62498 15.0782 7.32644 14.305 7.32644C13.5318 7.32644 12.7884 7.62498 12.23 8.15979L12 8.39979L11.77 8.15979C11.2197 7.60946 10.4733 7.30029 9.69499 7.30029C8.91672 7.30029 8.17032 7.60946 7.61999 8.15979C7.06967 8.71011 6.7605 9.45651 6.7605 10.2348C6.7605 11.0131 7.06967 11.7595 7.61999 12.3098L7.84999 12.5498L12 16.6998L16.15 12.5498L16.38 12.3098C16.653 12.0376 16.8696 11.7142 17.0175 11.3581C17.1653 11.0021 17.2414 10.6203 17.2414 10.2348C17.2414 9.84926 17.1653 9.46752 17.0175 9.11145C16.8696 8.75538 16.653 8.43198 16.38 8.15979Z" stroke="#F8EDED" stroke-width="2" stroke-linecap="round" stroke-linejoin="round"/>
</g>
<defs>
<clipPath id="clip0_172_2251">
<rect width="24" height="24" fill="white"/>
</clipPath>
</defs>
</svg>
