<svg width="24" height="24" viewBox="0 0 24 24" fill="none" xmlns="http://www.w3.org/2000/svg">
<g clip-path="url(#clip0_204_55)">
<path d="M12 22.5C17.799 22.5 22.5 17.799 22.5 12C22.5 6.20101 17.799 1.5 12 1.5C6.20101 1.5 1.5 6.20101 1.5 12C1.5 17.799 6.20101 22.5 12 22.5Z" fill="#374D77" stroke="#374D77" stroke-width="2" stroke-linecap="round" stroke-linejoin="round"/>
<path d="M9.64 6.99997L16.64 11.39C16.7473 11.4611 16.8353 11.5577 16.8961 11.6711C16.957 11.7845 16.9888 11.9113 16.9888 12.04C16.9888 12.1687 16.957 12.2954 16.8961 12.4088C16.8353 12.5222 16.7473 12.6188 16.64 12.69L9.64 17C9.52981 17.0708 9.40279 17.1112 9.2719 17.1169C9.14101 17.1226 9.01095 17.0935 8.89501 17.0324C8.77907 16.9714 8.68141 16.8807 8.61201 16.7696C8.54261 16.6585 8.50396 16.5309 8.5 16.4V7.59997C8.50396 7.46901 8.54261 7.34146 8.61201 7.23033C8.68141 7.11921 8.77907 7.0285 8.89501 6.96749C9.01095 6.90647 9.14101 6.87732 9.2719 6.88303C9.40279 6.88873 9.52981 6.92909 9.64 6.99997Z" stroke="#EEF1F7" stroke-width="2" stroke-linecap="round" stroke-linejoin="round"/>
</g>
<defs>
<clipPath id="clip0_204_55">
<rect width="24" height="24" fill="white"/>
</clipPath>
</defs>
</svg>
