<svg width="23" height="11" viewBox="0 0 23 11" fill="none" xmlns="http://www.w3.org/2000/svg">
<path d="M18.8198 2.58743C19.5322 1.69953 19.868 1 19.868 1L18.8198 2.58743ZM18.8198 2.58743C18.1421 3.43208 17.1235 4.44729 15.729 5.19289M18.8198 2.58743L15.729 5.19289M18.8198 2.58743L21.9644 4.14466M11.4822 6.24111C9.79668 6.24111 8.38772 5.80903 7.23546 5.19289M11.4822 6.24111L7.23546 5.19289M11.4822 6.24111C13.1678 6.24111 14.5767 5.80903 15.729 5.19289M11.4822 6.24111L15.729 5.19289M11.4822 6.24111V9.90988M7.23546 5.19289L4.14467 8.33755M7.23546 5.19289C5.91532 4.48701 4.93213 3.53963 4.25607 2.72412M7.23546 5.19289L4.25607 2.72412M15.729 5.19289L18.2957 8.33755M4.25607 2.72412C3.46717 1.77235 3.09644 1 3.09644 1L4.25607 2.72412ZM4.25607 2.72412L1 4.14466" stroke="#9D7539" stroke-width="2" stroke-linecap="round" stroke-linejoin="round"/>
</svg>
